<svg xmlns="http://www.w3.org/2000/svg"  viewBox="0 0 66 66" width="66px" height="66px"><g id="XMLID_3047_"><g id="XMLID_3024_"><g id="XMLID_3027_"><g id="XMLID_3045_"><g id="XMLID_3054_"><g id="XMLID_3058_"><polygon fill="#f8df64" points="19.2,32.01 32.71,63.27 45.81,32.85"/><path fill="#260d14" d="M32.71,63.43c-0.06,0-0.12-0.04-0.15-0.1l-13.5-31.26c-0.02-0.05-0.02-0.11,0.01-0.15 c0.03-0.04,0.09-0.07,0.14-0.07l26.6,0.84c0.05,0,0.1,0.03,0.13,0.07c0.03,0.04,0.03,0.1,0.01,0.15l-13.1,30.42 C32.83,63.39,32.77,63.43,32.71,63.43z M19.45,32.18l13.26,30.69L45.57,33L19.45,32.18z"/></g><g id="XMLID_3057_"><ellipse cx="32.71" cy="29.37" fill="#f4ba4e" rx="14.03" ry="9.72"/><path fill="#260d14" d="M32.71,39.25c-7.82,0-14.19-4.43-14.19-9.88c0-5.45,6.36-9.88,14.19-9.88s14.19,4.43,14.19,9.88 C46.89,34.82,40.53,39.25,32.71,39.25z M32.71,19.81c-7.65,0-13.87,4.29-13.87,9.56c0,5.27,6.22,9.56,13.87,9.56 s13.87-4.29,13.87-9.56C46.58,24.1,40.35,19.81,32.71,19.81z"/></g><g id="XMLID_3056_"><ellipse cx="32.71" cy="29.37" fill="#deebfc" rx="11.82" ry="8.19"/><path fill="#260d14" d="M32.71,37.72c-6.6,0-11.97-3.74-11.97-8.35s5.37-8.35,11.97-8.35s11.97,3.74,11.97,8.35 S39.31,37.72,32.71,37.72z M32.71,21.34c-6.43,0-11.66,3.6-11.66,8.03s5.23,8.03,11.66,8.03s11.66-3.6,11.66-8.03 S39.13,21.34,32.71,21.34z"/></g></g><g id="XMLID_3046_"><path id="XMLID_3022_" fill="#260d14" d="M32.71,43.92c-3.61,0-7.04-0.95-9.66-2.68c-0.07-0.05-0.09-0.15-0.05-0.22c0.05-0.07,0.15-0.09,0.22-0.05 c2.57,1.69,5.94,2.63,9.49,2.63c3.53,0,6.88-0.92,9.45-2.6c0.07-0.05,0.17-0.03,0.22,0.05c0.05,0.07,0.03,0.17-0.05,0.22 C39.71,42.98,36.29,43.92,32.71,43.92z"/><path id="XMLID_3053_" fill="#260d14" d="M32.71,47.71c-2.99,0-5.79-0.82-7.87-2.32c-0.07-0.05-0.09-0.15-0.04-0.22c0.05-0.07,0.15-0.09,0.22-0.04 c2.03,1.46,4.76,2.26,7.69,2.26c2.91,0,5.63-0.79,7.65-2.23c0.07-0.05,0.17-0.03,0.22,0.04c0.05,0.07,0.03,0.17-0.04,0.22 C38.46,46.9,35.68,47.71,32.71,47.71z"/><path id="XMLID_3052_" fill="#260d14" d="M32.71,51.71c-2.17,0-4.24-0.57-5.83-1.59c-0.07-0.05-0.09-0.15-0.05-0.22c0.05-0.07,0.15-0.09,0.22-0.05 c1.54,1,3.55,1.54,5.65,1.54c2.1,0,4.1-0.54,5.63-1.53c0.07-0.05,0.17-0.03,0.22,0.05c0.05,0.07,0.03,0.17-0.05,0.22 C36.92,51.15,34.86,51.71,32.71,51.71z"/><path id="XMLID_3051_" fill="#260d14" d="M32.71,55.37c-1.42,0-2.78-0.31-3.93-0.9c-0.08-0.04-0.11-0.14-0.07-0.21c0.04-0.08,0.14-0.11,0.21-0.07 c1.11,0.56,2.42,0.86,3.79,0.86c1.36,0,2.67-0.3,3.77-0.85c0.08-0.04,0.17-0.01,0.21,0.07c0.04,0.08,0.01,0.17-0.07,0.21 C35.47,55.07,34.12,55.37,32.71,55.37z"/><path id="XMLID_3048_" fill="#260d14" d="M32.71,58.85c-0.77,0-1.5-0.12-2.19-0.37c-0.08-0.03-0.13-0.12-0.1-0.2c0.03-0.08,0.12-0.13,0.2-0.1 c1.3,0.46,2.85,0.46,4.15,0c0.08-0.03,0.17,0.01,0.2,0.1c0.03,0.08-0.01,0.17-0.1,0.2C34.2,58.73,33.47,58.85,32.71,58.85z"/></g></g><g id="XMLID_3028_"><g id="XMLID_3044_"><circle cx="32.86" cy="13.76" r="11.03" fill="#fe045b"/><path fill="#260d14" d="M32.86,24.95c-6.17,0-11.19-5.02-11.19-11.19c0-6.17,5.02-11.19,11.19-11.19s11.19,5.02,11.19,11.19 C44.06,19.93,39.03,24.95,32.86,24.95z M32.86,2.89c-6,0-10.87,4.88-10.87,10.87s4.88,10.87,10.87,10.87 s10.87-4.88,10.87-10.87S38.86,2.89,32.86,2.89z"/></g><g id="XMLID_3043_"><circle cx="42.16" cy="25.31" r="11.03" fill="#aaf9f9"/><path fill="#260d14" d="M42.16,36.5c-6.17,0-11.19-5.02-11.19-11.19s5.02-11.19,11.19-11.19s11.19,5.02,11.19,11.19 S48.33,36.5,42.16,36.5z M42.16,14.43c-6,0-10.87,4.88-10.87,10.87s4.88,10.87,10.87,10.87s10.87-4.88,10.87-10.87 S48.15,14.43,42.16,14.43z"/></g><g id="XMLID_3039_"><circle cx="23.84" cy="26.42" r="11.03" fill="#33da82"/><path fill="#260d14" d="M23.84,37.61c-6.17,0-11.19-5.02-11.19-11.19s5.02-11.19,11.19-11.19s11.19,5.02,11.19,11.19 S30.01,37.61,23.84,37.61z M23.84,15.54c-6,0-10.87,4.88-10.87,10.87s4.88,10.87,10.87,10.87s10.87-4.88,10.87-10.87 S29.84,15.54,23.84,15.54z"/></g></g></g></g><g id="XMLID_3042_"><circle cx="39.89" cy="21.95" r="3.79" fill="#071f4d"/><path fill="#260d14" d="M39.89,25.9c-2.18,0-3.95-1.77-3.95-3.95s1.77-3.95,3.95-3.95s3.95,1.77,3.95,3.95S42.07,25.9,39.89,25.9z M39.89,18.32c-2,0-3.63,1.63-3.63,3.63s1.63,3.63,3.63,3.63s3.63-1.63,3.63-3.63S41.89,18.32,39.89,18.32z"/></g><g id="XMLID_3040_"><path fill="#071f4d" d="M33.35,10.22c0,1.97-1.6,3.57-3.57,3.57c-1.97,0-3.57-1.6-3.57-3.57c0-1.97,1.6-3.57,3.57-3.57 C31.75,6.65,33.35,8.25,33.35,10.22z"/><path fill="#260d14" d="M29.78,13.95c-2.06,0-3.73-1.67-3.73-3.73c0-2.06,1.67-3.73,3.73-3.73c2.06,0,3.73,1.67,3.73,3.73 C33.51,12.27,31.84,13.95,29.78,13.95z M29.78,6.81c-1.88,0-3.41,1.53-3.41,3.41s1.53,3.41,3.41,3.41c1.88,0,3.41-1.53,3.41-3.41 S31.66,6.81,29.78,6.81z"/></g><g id="XMLID_3038_"><circle cx="21.31" cy="24.3" r="4.61" fill="#071f4d"/><path fill="#260d14" d="M21.31,29.06c-2.63,0-4.76-2.14-4.76-4.76s2.14-4.76,4.76-4.76c2.63,0,4.76,2.14,4.76,4.76 S23.94,29.06,21.31,29.06z M21.31,19.85c-2.45,0-4.45,1.99-4.45,4.45c0,2.45,2,4.45,4.45,4.45s4.45-1.99,4.45-4.45 C25.76,21.84,23.76,19.85,21.31,19.85z"/></g></g></svg>